<?xml version="1.0" encoding="UTF-8" standalone="no"?>
<svg
   xmlns:dc="http://purl.org/dc/elements/1.1/"
   xmlns:cc="http://creativecommons.org/ns#"
   xmlns:rdf="http://www.w3.org/1999/02/22-rdf-syntax-ns#"
   xmlns:svg="http://www.w3.org/2000/svg"
   xmlns="http://www.w3.org/2000/svg"
   xmlns:xlink="http://www.w3.org/1999/xlink"
   xmlns:sodipodi="http://sodipodi.sourceforge.net/DTD/sodipodi-0.dtd"
   xmlns:inkscape="http://www.inkscape.org/namespaces/inkscape"
   width="600"
   height="496.39999"
   viewBox="0 0 700 579.13333"
   id="svg3029"
   version="1.1"
   inkscape:version="0.48.5 r10040"
   sodipodi:docname="Flag_of_Tajikistan.svg">
  <metadata
     id="metadata3071">
    <rdf:RDF>
      <cc:Work
         rdf:about="">
        <dc:format>image/svg+xml</dc:format>
        <dc:type
           rdf:resource="http://purl.org/dc/dcmitype/StillImage" />
        <dc:title></dc:title>
      </cc:Work>
    </rdf:RDF>
  </metadata>
  <defs
     id="defs3069" />
  <sodipodi:namedview
     pagecolor="#ffffff"
     bordercolor="#666666"
     borderopacity="1"
     objecttolerance="10"
     gridtolerance="10"
     guidetolerance="10"
     inkscape:pageopacity="0"
     inkscape:pageshadow="2"
     inkscape:window-width="1920"
     inkscape:window-height="1017"
     id="namedview3067"
     showgrid="false"
     inkscape:zoom="0.896875"
     inkscape:cx="600"
     inkscape:cy="300"
     inkscape:window-x="-8"
     inkscape:window-y="-8"
     inkscape:window-maximized="1"
     inkscape:current-layer="svg3029" />
  <g
     id="g3037"
     transform="matrix(2.1370599,0,0,2.1370599,-1145.9419,-459.47777)"
     style="fill:#f8c300">
    <path
       d="m 672,340.7 a 12.5,12.5 0 0 1 23.3,5.9 v 50 h 9.4 v -50 a 12.5,12.5 0 0 1 23.3,-5.9 29.5,29.5 0 1 0 -56,0"
       id="path3039"
       inkscape:connector-curvature="0" />
    <path
       d="m 678.7,327.65 a 20,20 0 0 1 21.3,9.55 20,20 0 0 1 21.3,-9.55 21.5,21.5 0 0 0 -42.6,0"
       id="path3041"
       inkscape:connector-curvature="0"
       style="fill:#ffffff" />
    <path
       id="w"
       d="m 695.3,376.627 a 38,38 0 0 1 -63.845,24.316 39.5,39.5 0 0 1 -59.734,17.467 c 3.6496,36.426 58.252,28.989 62.32,-6.4288 17.154,30.115 54.873,21.49 65.91,-15.4 z"
       inkscape:connector-curvature="0" />
    <use
       xlink:href="#w"
       transform="matrix(-1,0,0,1,1400,0)"
       id="use3044"
       x="0"
       y="0"
       width="1400"
       height="700" />
    <path
       id="r"
       d="m 658.84,441.31 c -7.6181,16.446 -22.845,19.271 -36.164,5.9953 0,0 5.3539,-3.7831 11.086,-4.826 -1.0748,-4.5744 1.1291,-10.902 4.2354,-14.324 3.2575,2.2264 7.8036,6.6886 8.9598,11.874 8.0291,-1.0394 11.883,1.2815 11.883,1.2815 z"
       inkscape:connector-curvature="0" />
    <use
       xlink:href="#r"
       transform="matrix(0.98665754,0.16280937,-0.16280937,0.98665754,140.23845,-103.23923)"
       id="use3047"
       x="0"
       y="0"
       width="1400"
       height="700" />
    <use
       xlink:href="#r"
       transform="matrix(0.94698622,0.32127419,-0.32127419,0.94698622,295.4141,-182.26885)"
       id="use3049"
       x="0"
       y="0"
       width="1400"
       height="700" />
    <path
       d="m 603,478 a 340,340 0 0 1 194,0"
       id="path3051"
       inkscape:connector-curvature="0"
       style="fill:none;stroke:#f8c300;stroke-width:16" />
    <g
       transform="translate(700,380)"
       id="g3053">
      <g
         transform="translate(0,-140)"
         id="g3055">
        <polygon
           id="s"
           points="-301930,415571 0,-513674 301930,415571 -488533,-158734 488533,-158734 "
           transform="scale(4.8669e-5,4.8669e-5)" />
      </g>
      <g
         id="h">
        <use
           xlink:href="#s"
           transform="translate(-70,-121.24356)"
           id="use3059"
           x="0"
           y="0"
           width="1400"
           height="700" />
        <use
           xlink:href="#s"
           transform="translate(-121.24356,-70)"
           id="use3061"
           x="0"
           y="0"
           width="1400"
           height="700" />
        <use
           xlink:href="#s"
           transform="translate(-140,0)"
           id="use3063"
           x="0"
           y="0"
           width="1400"
           height="700" />
      </g>
      <use
         xlink:href="#h"
         transform="scale(-1,1)"
         id="use3065"
         x="0"
         y="0"
         width="1400"
         height="700" />
    </g>
  </g>
</svg>
